<?xml version="1.0" encoding="UTF-8"?>
<svg version="1.1" xmlns="http://www.w3.org/2000/svg" width="512" height="512">
<path d="M0 0 C1.77290041 -0.00576172 1.77290041 -0.00576172 3.581617 -0.01163983 C4.87109504 -0.01077335 6.16057307 -0.00990687 7.48912621 -0.00901413 C8.87993558 -0.01159958 10.27074422 -0.01461324 11.66155183 -0.01801753 C15.47856407 -0.02606974 19.29555748 -0.02787611 23.1125772 -0.028615 C27.23135426 -0.03046866 31.35012162 -0.03801759 35.46889305 -0.04475021 C44.4731872 -0.05832158 53.4774769 -0.06435644 62.48177958 -0.06876087 C68.10654768 -0.07152541 73.73131407 -0.07576316 79.35608101 -0.08026505 C94.93631507 -0.09245632 110.51654777 -0.1027558 126.0967865 -0.10614014 C127.09360963 -0.1063597 128.09043276 -0.10657927 129.11746266 -0.10680549 C130.11664097 -0.10702377 131.11581927 -0.10724204 132.14527571 -0.10746694 C134.16991655 -0.1079104 136.19455739 -0.10835696 138.21919823 -0.10880661 C139.72562881 -0.10913875 139.72562881 -0.10913875 141.26249234 -0.10947761 C157.53027191 -0.11342441 173.79800665 -0.13087548 190.06576891 -0.15416613 C206.77664197 -0.17789762 223.48749256 -0.19034281 240.19838274 -0.19150805 C249.57727016 -0.19242382 258.95609917 -0.19815135 268.33497047 -0.21632767 C276.32233965 -0.23175293 284.30963236 -0.23683483 292.2970136 -0.22858956 C296.3693854 -0.2246916 300.44160335 -0.22557075 304.51395607 -0.23964691 C308.24858765 -0.25243722 311.98295055 -0.25114374 315.71758203 -0.2390562 C317.69474737 -0.23619147 319.67191758 -0.24799599 321.64904559 -0.26047826 C337.85943141 -0.17127845 350.88122204 4.42520132 362.72749901 15.65095901 C374.50068555 28.40859289 377.1880879 42.77142854 377.1300869 59.50447464 C377.13023293 60.6175499 377.13037895 61.73062515 377.1305294 62.87742996 C377.129836 66.53503279 377.12207047 70.19258389 377.11421776 73.85017776 C377.11235155 76.39465177 377.1109286 78.93912613 377.10993004 81.48360062 C377.10650964 87.48280932 377.09863827 93.48199602 377.08858055 99.48119593 C377.07737322 106.31558984 377.07189735 113.14998467 377.06688511 119.98438549 C377.05645431 134.03340973 377.03888376 148.08241774 377.01656151 162.13142776 C378.28548241 162.10786209 378.28548241 162.10786209 379.58003807 162.08382034 C382.77825634 162.03208831 385.97625842 161.99478871 389.17476463 161.96663284 C390.54788377 161.95172854 391.92095689 161.9313978 393.29390526 161.90510941 C408.91346808 161.61395527 421.48170917 164.02060584 433.26656151 174.75642776 C441.68782169 183.65500634 445.33618988 195.24567138 445.28398705 207.29504776 C445.28851816 208.07675286 445.29304927 208.85845795 445.29771769 209.66385108 C445.31029593 212.2620729 445.3087456 214.86008333 445.30708885 217.45833206 C445.31307829 219.33002362 445.31988479 221.20171271 445.32744408 223.07339859 C445.34507083 228.14389724 445.34979811 233.21432832 445.35107565 238.28485465 C445.3524999 241.45764027 445.35677474 244.63040885 445.36207008 247.80319023 C445.38056069 258.88616521 445.38874207 269.96909217 445.38716698 281.05208206 C445.38596645 291.3596815 445.40705388 301.66707125 445.4386543 311.97461766 C445.46486681 320.84285927 445.47553216 329.71103261 445.47425616 338.57931262 C445.47374791 343.86756412 445.47935492 349.15562925 445.50061226 354.44384193 C445.5200781 359.4221103 445.52006233 364.40001612 445.50557899 369.37829781 C445.50349999 371.1966518 445.50813708 373.015029 445.52029991 374.83334351 C445.62021812 390.81697835 443.52648107 404.02837393 432.13765526 416.12752151 C421.17246107 426.42815848 409.12636591 428.26689157 394.63374901 428.17439651 C393.70747704 428.17129471 392.78120506 428.1681929 391.82686424 428.1649971 C389.55673115 428.15694698 387.28666277 428.14567193 385.01656151 428.13142776 C385.02766457 428.88231674 385.03876762 429.63320572 385.05020714 430.40684891 C385.15057017 437.49807529 385.22660746 444.58905393 385.27562237 451.68079185 C385.30166945 455.32643029 385.33697522 458.9714798 385.39375877 462.61677933 C385.44825738 466.13759868 385.47801881 469.65785316 385.49094772 473.17906189 C385.50462455 475.16997553 385.54363009 477.16066322 385.58304405 479.15123367 C385.58616871 489.25204254 385.58616871 489.25204254 382.67354393 492.93953323 C379.38213164 495.65480472 376.43176608 496.68666113 372.13765526 496.58845901 C367.17668089 495.51951979 363.0992319 491.99427591 359.01656151 489.13142776 C357.78331504 488.28732868 356.5488819 487.44496142 355.31343651 486.60408401 C351.89796017 484.27405785 348.49602787 481.9250013 345.09712791 479.57088089 C341.74234981 477.24985628 338.37916046 474.94110003 335.01656151 472.63142776 C333.67927442 471.71222605 332.34203486 470.79295517 331.00484276 469.87361526 C330.34435936 469.419543 329.68387596 468.96547073 329.00337791 468.4976387 C327.04267026 467.14938114 325.08230368 465.80062909 323.12203026 464.45174026 C315.92704985 459.50159374 308.72544956 454.56130204 301.51656151 449.63142776 C295.36867079 445.42609539 289.2209862 441.22047054 283.07906151 437.00642776 C282.4229287 436.55718948 281.76679588 436.1079512 281.09078026 435.64509964 C276.17206517 432.26737441 276.17206517 432.26737441 274.1680212 430.51537037 C271.40695777 428.73929558 269.64060957 428.75273783 266.37055016 428.7461586 C265.219795 428.73651077 264.06903984 428.72686295 262.88341331 428.71692276 C261.624674 428.72149994 260.36593468 428.72607712 259.06905174 428.730793 C257.72671459 428.72504901 256.3843826 428.71796563 255.04205894 428.70964432 C252.15226457 428.69453283 249.26265492 428.68875686 246.37282181 428.6901722 C241.79490369 428.69220838 237.21723281 428.67261884 232.6393795 428.64999771 C223.73712233 428.60900839 214.8348845 428.59042919 205.93255424 428.57382584 C194.62678649 428.55148304 183.32107631 428.51770612 172.01540142 428.4666267 C167.47403479 428.44681226 162.93279694 428.43713212 158.39138877 428.43567455 C155.55121666 428.43290291 152.71111427 428.42202572 149.87097168 428.40916443 C147.94679443 428.40291784 146.02259299 428.40645719 144.09840965 428.41040421 C128.53375961 428.3196088 116.78475375 425.52324409 105.27828026 414.57674026 C95.71507022 404.23724202 93.59907199 392.50096638 93.91109276 378.77205276 C93.94589745 377.90064651 93.98070213 377.02924026 94.01656151 376.13142776 C91.1829991 378.06859289 88.34973554 380.00619467 85.51656151 381.94392776 C84.65450096 382.53343216 83.79244041 383.12293655 82.90425682 383.73030472 C78.16925587 386.96960653 73.43888784 390.21535042 68.71748924 393.47444534 C66.77443712 394.81350028 64.82755844 396.14682391 62.87984276 397.47908401 C60.21711632 399.30052166 57.57255913 401.14552527 54.93453026 403.00252151 C53.60801733 403.92093815 52.28120524 404.83892288 50.95406151 405.75642776 C50.3588369 406.18270462 49.76361229 406.60898148 49.15035057 407.04817581 C45.12776505 409.80079955 41.8789584 410.89522128 37.01656151 411.13142776 C32.82056645 409.92241224 30.62839083 408.87190494 27.83791161 405.4946785 C25.74745759 401.6345085 25.47449649 398.65396471 25.56245995 394.38191605 C25.56187584 393.63001495 25.56129173 392.87811386 25.56068993 392.10342789 C25.56346088 389.63571733 25.59450398 387.16923792 25.62593651 384.70174026 C25.63340246 382.98396337 25.63909372 381.26617792 25.64308739 379.54838943 C25.6583159 375.04040641 25.69757334 370.53294382 25.74190331 366.02516556 C25.78291632 361.4200329 25.80111125 356.81481565 25.82124901 352.20955276 C25.86407061 343.1832832 25.9322879 334.15739886 26.01656151 325.13142776 C25.05467918 325.15237503 24.09279686 325.1733223 23.10176659 325.19490433 C19.46943629 325.2683235 15.83716871 325.31358982 12.20430565 325.35115433 C10.64397144 325.37104141 9.08370942 325.39816129 7.52364159 325.43318558 C-9.15771251 325.79780534 -23.63319527 322.43226688 -36.33109474 310.86970901 C-47.10436786 299.53612381 -51.13878725 285.85841024 -51.12388039 270.56914139 C-51.12685151 269.61284682 -51.12982263 268.65655226 -51.13288379 267.67127907 C-51.14154784 264.47032364 -51.1430771 261.26940571 -51.1445713 258.06843948 C-51.14920113 255.77178238 -51.15422601 253.47512605 -51.15961647 251.17847061 C-51.17272732 244.9406161 -51.17918297 238.70277235 -51.18362713 232.46490622 C-51.1865602 228.56548767 -51.19066548 224.66607204 -51.1951313 220.76665497 C-51.20723759 209.95770438 -51.21762029 199.14875702 -51.22100639 188.33979988 C-51.22122596 187.64864071 -51.22144553 186.95748153 -51.22167175 186.24537814 C-51.22189002 185.55261948 -51.2221083 184.85986081 -51.22233319 184.14610946 C-51.22277665 182.74245254 -51.22322321 181.33879562 -51.22367287 179.9351387 C-51.2238943 179.23888497 -51.22411573 178.54263123 -51.22434387 177.82527889 C-51.22828876 166.5528818 -51.24573483 155.28054948 -51.26903239 144.00817738 C-51.29279116 132.41851863 -51.30495274 120.82889551 -51.30637431 109.23921216 C-51.30742101 102.73871633 -51.31330018 96.23831189 -51.33119392 89.73783875 C-51.34770796 83.61961033 -51.34981383 77.50154167 -51.34105492 71.38329887 C-51.34028631 69.14365014 -51.34460386 66.90399271 -51.35451317 64.66436577 C-51.4336722 45.65114958 -50.06354793 29.83308866 -36.35843849 15.45174026 C-26.15221138 5.48052496 -14.4405877 0.01768222 0 0 Z " fill="#48BCA6" transform="translate(58.98343849182129,7.868572235107422)"/>
<path d="M0 0 C4.19511576 -0.07521585 8.38985477 -0.12909381 12.58544922 -0.16479492 C14.00706841 -0.17970701 15.42864307 -0.20004409 16.85009766 -0.22631836 C32.46381017 -0.50729907 45.36788745 1.8005755 57.25 12.625 C65.67126018 21.52357857 69.31962837 33.11424362 69.26742554 45.16362 C69.27195665 45.94532509 69.27648776 46.72703019 69.28115618 47.53242332 C69.29373442 50.13064513 69.29218409 52.72865556 69.29052734 55.3269043 C69.29651678 57.19859585 69.30332328 59.07028495 69.31088257 60.94197083 C69.32850932 66.01246947 69.3332366 71.08290056 69.33451414 76.15342689 C69.33593839 79.3262125 69.34021323 82.49898109 69.34550858 85.67176247 C69.36399918 96.75473745 69.37218057 107.8376644 69.37060547 118.9206543 C69.36940494 129.22825374 69.39049237 139.53564349 69.4220928 149.8431899 C69.4483053 158.7114315 69.45897065 167.57960484 69.45769465 176.44788486 C69.4571864 181.73613636 69.46279341 187.02420148 69.48405075 192.31241417 C69.50351659 197.29068253 69.50350082 202.26858836 69.48901749 207.24687004 C69.48693848 209.06522404 69.49157557 210.88360123 69.5037384 212.70191574 C69.60365661 228.68555058 67.50991956 241.89694616 56.12109375 253.99609375 C45.15589956 264.29673071 33.1098044 266.13546381 18.6171875 266.04296875 C17.69091553 266.03986694 16.76464355 266.03676514 15.81030273 266.03356934 C13.54016964 266.02551922 11.27010126 266.01424416 9 266 C9.01110306 266.75088898 9.02220612 267.50177795 9.03364563 268.27542114 C9.13400866 275.36664753 9.21004595 282.45762617 9.25906086 289.54936409 C9.28510794 293.19500252 9.32041371 296.84005204 9.37719727 300.48535156 C9.43169587 304.00617091 9.4614573 307.5264254 9.47438622 311.04763412 C9.48806304 313.03854776 9.52706858 315.02923546 9.56648254 317.01980591 C9.5696072 327.12061478 9.5696072 327.12061478 6.65698242 330.80810547 C3.36557013 333.52337695 0.41520458 334.55523337 -3.87890625 334.45703125 C-8.83988062 333.38809202 -12.91732961 329.86284814 -17 327 C-18.23324647 326.15590091 -19.4676796 325.31353365 -20.703125 324.47265625 C-24.11860134 322.14263009 -27.52053364 319.79357353 -30.91943359 317.43945312 C-34.2742117 315.11842852 -37.63740105 312.80967226 -41 310.5 C-42.33728709 309.58079828 -43.67452665 308.66152741 -45.01171875 307.7421875 C-45.67220215 307.28811523 -46.33268555 306.83404297 -47.01318359 306.36621094 C-48.97389125 305.01795337 -50.93425783 303.66920132 -52.89453125 302.3203125 C-60.08951166 297.37016598 -67.29111195 292.42987428 -74.5 287.5 C-80.64789072 283.29466763 -86.7955753 279.08904278 -92.9375 274.875 C-93.59363281 274.42576172 -94.24976563 273.97652344 -94.92578125 273.51367188 C-99.84449633 270.13594664 -99.84449633 270.13594664 -101.84854031 268.3839426 C-104.60960374 266.60786781 -106.37595194 266.62131007 -109.64601135 266.61473083 C-110.79676651 266.60508301 -111.94752167 266.59543518 -113.13314819 266.585495 C-114.39188751 266.59007217 -115.65062683 266.59464935 -116.94750977 266.59936523 C-118.28984692 266.59362125 -119.63217891 266.58653787 -120.97450256 266.57821655 C-123.86429694 266.56310507 -126.75390659 266.55732909 -129.6437397 266.55874443 C-134.22165782 266.56078062 -138.7993287 266.54119108 -143.37718201 266.51856995 C-152.27943918 266.47758063 -161.18167701 266.45900143 -170.08400726 266.44239807 C-181.38977502 266.42005528 -192.6954852 266.38627836 -204.00116009 266.33519894 C-208.54252672 266.31538449 -213.08376457 266.30570435 -217.62517273 266.30424678 C-220.46534485 266.30147514 -223.30544724 266.29059796 -226.14558983 266.27773666 C-228.06976708 266.27149008 -229.99396852 266.27502942 -231.91815186 266.27897644 C-247.4828019 266.18818103 -259.23180776 263.39181633 -270.73828125 252.4453125 C-279.97286884 242.46111245 -283.06575518 229.82499401 -282.7109375 216.41015625 C-281.88725527 212.45919697 -281.0228925 211.22449217 -277.9375 208.6875 C-275.98642005 207.41422139 -274.00366015 206.18882185 -272 205 C-270.84749435 204.23721929 -269.7005542 203.4659793 -268.55859375 202.6875 C-266.04962886 200.97951287 -263.52711142 199.29609686 -260.98828125 197.6328125 C-256.97583728 194.99592294 -253.01441611 192.28902702 -249.0625 189.5625 C-248.39984131 189.10584961 -247.73718262 188.64919922 -247.05444336 188.17871094 C-245.03566434 186.78671939 -243.0176937 185.39356418 -241 184 C-238.31343886 182.14446792 -235.62577076 180.2905541 -232.9375 178.4375 C-232.36201416 178.03926025 -231.78652832 177.64102051 -231.19360352 177.23071289 C-229.9732884 176.38961523 -228.74504143 175.55993737 -227.51009083 174.74047947 C-225.58822373 173.40787023 -223.71834386 172.00000807 -221.87449932 170.56137753 C-212.30797982 163.31884916 -205.16745282 161.56156094 -193.34106445 161.82055664 C-191.7327155 161.8184197 -190.12436738 161.81182557 -188.51605225 161.80117798 C-184.19504528 161.7845537 -179.87658077 161.82829867 -175.55596948 161.88292623 C-171.00924816 161.92890531 -166.46270784 161.91514506 -161.91581726 161.90733337 C-153.31349334 161.90091474 -144.712169 161.94252786 -136.11008853 162.00405258 C-120.7100856 162.11241711 -105.30978439 162.13396605 -89.90944451 162.14459509 C-84.5159614 162.15016238 -79.12302945 162.17522123 -73.72971117 162.21732819 C-70.36619936 162.24131374 -67.00271026 162.25328057 -63.63912964 162.26279068 C-62.0912303 162.26990868 -60.54334381 162.28222673 -58.9955349 162.30040932 C-41.98119157 162.4956985 -27.92403148 159.41607385 -15.32421875 147.44921875 C-6.50782901 138.15867023 -0.93757672 126.84073676 -0.84178162 113.88102722 C-0.8319928 112.87286957 -0.82220398 111.86471191 -0.81211853 110.82600403 C-0.80636307 109.73124252 -0.8006076 108.63648102 -0.79467773 107.50854492 C-0.78477814 106.34713989 -0.77487854 105.18573486 -0.76467896 103.98913574 C-0.73310899 100.1529341 -0.7083242 96.31672008 -0.68359375 92.48046875 C-0.66302034 89.81960123 -0.64207091 87.15873934 -0.62062073 84.49787903 C-0.57077066 78.21173596 -0.52580343 71.92556786 -0.48259836 65.63937598 C-0.43316017 58.48096275 -0.37826652 51.32259458 -0.32291877 44.16422498 C-0.20921677 29.44285942 -0.10235222 14.72144895 0 0 Z " fill="#4DD7D4" transform="translate(435,170)"/>
<path d="M0 0 C0.79859436 -0.0065712 1.59718872 -0.0131424 2.41998291 -0.01991272 C5.07010997 -0.03966621 7.72018023 -0.05131448 10.37036133 -0.0612793 C11.2754928 -0.06535482 12.18062428 -0.06943035 13.11318398 -0.07362938 C17.9063456 -0.0945015 22.69947852 -0.10879677 27.49267578 -0.11816406 C32.4379971 -0.12921495 37.38286677 -0.16359623 42.32802868 -0.20333576 C46.13453492 -0.22951813 49.94093399 -0.23785747 53.74752235 -0.24144554 C55.56992954 -0.2463094 57.392332 -0.25791767 59.21465111 -0.27648354 C61.77106513 -0.3009038 64.32631687 -0.29990466 66.8828125 -0.29296875 C68.00451591 -0.31218384 68.00451591 -0.31218384 69.14888 -0.33178711 C74.58277921 -0.27827467 77.79549808 1.0537798 82.26489258 4.17700195 C83.70239258 6.92700195 83.70239258 6.92700195 84.26489258 9.17700195 C85.36446289 9.15379883 86.4640332 9.1305957 87.59692383 9.10668945 C108.69196165 8.78858968 126.14673675 13.88949828 142.26489258 28.17700195 C149.90154309 36.757906 157.987034 47.67522224 160.26489258 59.17700195 C161.30387695 59.19118164 162.34286133 59.20536133 163.41333008 59.2199707 C173.04271991 59.48934852 180.87644736 60.29052216 188.31958008 67.0402832 C196.19067135 75.45026662 196.76660453 82.85577254 196.70239258 94.05200195 C196.72237305 95.28047852 196.74235352 96.50895508 196.76293945 97.7746582 C196.75740888 108.09471585 194.63985395 115.80204058 187.26489258 123.17700195 C182.46262504 126.55156833 178.01085678 128.31901683 172.15551758 128.2746582 C171.40141602 128.27143555 170.64731445 128.26821289 169.87036133 128.26489258 C169.09305664 128.25651367 168.31575195 128.24813477 167.51489258 128.23950195 C166.72211914 128.23499023 165.9293457 128.23047852 165.11254883 128.22583008 C163.1632975 128.2140876 161.2140852 128.19615341 159.26489258 128.17700195 C159.16305664 129.19149414 159.0612207 130.20598633 158.95629883 131.2512207 C156.42838745 145.60461583 145.58112044 158.59166189 134.26489258 167.17700195 C119.39588841 177.1371979 104.76569223 180.48114041 87.06103516 180.4675293 C85.78790466 180.47424652 84.51477417 180.48096375 83.20306396 180.48788452 C79.74198794 180.5053947 76.28101108 180.51023354 72.81989503 180.51151609 C70.64793727 180.51294702 68.47600398 180.51723427 66.30405235 180.52251053 C58.69943036 180.54096256 51.09487802 180.54918738 43.49023438 180.54760742 C36.44596518 180.54640793 29.40200329 180.56748486 22.35781175 180.59909475 C16.27329941 180.62540719 10.18888651 180.63596848 4.10431784 180.6346966 C0.48657263 180.63419126 -3.13089907 180.63963319 -6.74858665 180.6610527 C-41.30723249 180.85162489 -41.30723249 180.85162489 -56.98510742 172.61450195 C-57.64003174 172.27644531 -58.29495605 171.93838867 -58.96972656 171.59008789 C-74.7656432 163.0059782 -86.01107125 148.03484965 -91.73510742 131.17700195 C-91.73510742 130.18700195 -91.73510742 129.19700195 -91.73510742 128.17700195 C-93.52754883 128.26401367 -93.52754883 128.26401367 -95.35620117 128.3527832 C-105.50594997 128.70156083 -112.69261378 128.70924057 -120.49291992 121.56762695 C-128.17375861 113.47862776 -128.25669492 104.44463799 -128.23510742 93.80200195 C-128.2634668 92.5387207 -128.29182617 91.27543945 -128.32104492 89.97387695 C-128.34034911 80.68856054 -126.92150645 73.65014064 -120.45385742 66.73950195 C-119.35557617 65.96606445 -119.35557617 65.96606445 -118.23510742 65.17700195 C-117.50291992 64.64075195 -116.77073242 64.10450195 -116.01635742 63.55200195 C-110.52059544 60.23948788 -106.20049115 59.91518303 -99.92260742 60.05200195 C-98.74021484 60.06553711 -98.74021484 60.06553711 -97.53393555 60.0793457 C-95.60086076 60.10277691 -93.66794362 60.13864357 -91.73510742 60.17700195 C-91.5881543 59.58274414 -91.44120117 58.98848633 -91.28979492 58.3762207 C-86.57558809 40.95532996 -75.42503624 27.01261971 -59.92260742 17.98950195 C-51.1024298 13.01404744 -41.91349372 9.01639836 -31.65307617 9.0793457 C-30.72172852 9.08256836 -29.79038086 9.08579102 -28.83081055 9.08911133 C-27.87110352 9.09749023 -26.91139648 9.10586914 -25.92260742 9.11450195 C-24.94356445 9.11901367 -23.96452148 9.12352539 -22.95581055 9.12817383 C-20.54884632 9.13991512 -18.14200885 9.15633776 -15.73510742 9.17700195 C-15.62038086 8.56211914 -15.5056543 7.94723633 -15.38745117 7.3137207 C-14.42442114 4.15936485 -12.36734234 3.03882665 -9.73510742 1.17700195 C-6.64755982 -0.36677185 -3.38950428 0.01202503 0 0 Z " fill="#E2E9EE" transform="translate(187.735107421875,84.822998046875)"/>
<path d="M0 0 C1.00482422 -0.00860046 2.00964844 -0.01720093 3.04492188 -0.02606201 C4.14155655 -0.03032196 5.23819122 -0.03458191 6.36805725 -0.03897095 C7.52794159 -0.04714844 8.68782593 -0.05532593 9.88285828 -0.06375122 C13.7269591 -0.08859004 17.57102292 -0.10512092 21.41517639 -0.11953735 C22.73022219 -0.12486103 24.04526798 -0.13018471 25.40016365 -0.13566971 C30.93247378 -0.15729645 36.46478108 -0.17602659 41.99712276 -0.1872921 C49.89595254 -0.20348726 57.79428702 -0.23655823 65.69293016 -0.29369295 C71.26174518 -0.33258358 76.83042885 -0.35194766 82.39937598 -0.35721266 C85.71713785 -0.36084245 89.03425425 -0.37516371 92.35189629 -0.4053154 C124.85554912 -0.68377325 124.85554912 -0.68377325 138.01283264 12.15390015 C146.72767062 21.88481789 150.65378053 32.87245364 150.38783264 45.90390015 C148.94121442 58.44125808 142.6973385 68.96335851 132.95423889 76.81015015 C122.8527897 83.80189768 112.84814604 85.45821747 100.7926178 85.42855835 C99.70681931 85.43366928 98.62102081 85.43878021 97.50231934 85.44404602 C93.93545421 85.45787444 90.36878378 85.45699031 86.80189514 85.4546814 C84.30762155 85.45857201 81.81334862 85.46290744 79.31907654 85.46766663 C74.09913482 85.47511433 68.87926076 85.47484803 63.65931702 85.46957397 C56.98945407 85.46287332 50.3199121 85.48071289 43.65007973 85.50391865 C38.5009043 85.51869191 33.35179525 85.51952278 28.20260239 85.51640892 C25.74436772 85.51692032 23.28612917 85.52212378 20.82791519 85.53222084 C17.38237498 85.54463748 13.93736902 85.53776188 10.49183655 85.5262146 C9.48889053 85.53385834 8.48594452 85.54150208 7.4526062 85.54937744 C-5.60144001 85.45328783 -16.44314242 81.39355812 -26.17466736 72.65390015 C-35.51854031 62.79725368 -38.41221527 50.72933278 -38.26060486 37.4937439 C-37.35243936 26.40115097 -31.17282678 16.82250684 -23.17466736 9.34140015 C-16.41446787 3.76720057 -8.80802305 0.05630332 0 0 Z " fill="#122459" transform="translate(165.98716735839844,136.84609985351563)"/>
<path d="M0 0 C1.1987677 -0.01051392 1.1987677 -0.01051392 2.42175293 -0.02124023 C5.05048892 -0.03877366 7.67813876 -0.02721339 10.30688477 -0.01367188 C12.14242254 -0.0163684 13.97795892 -0.02025217 15.81349182 -0.02526855 C19.65591057 -0.03115752 23.49795669 -0.02262112 27.34033203 -0.00390625 C32.25424893 0.0188669 37.16729108 0.00576689 42.0811758 -0.01819611 C45.87057527 -0.03268416 49.65976906 -0.02803406 53.44917488 -0.01768494 C55.26038785 -0.01502512 57.07161976 -0.01826109 58.88281059 -0.02760315 C61.41976895 -0.03781675 63.95533244 -0.02220107 66.4921875 0 C67.2337056 -0.00809692 67.97522369 -0.01619385 68.73921204 -0.02453613 C74.27761619 0.06479168 77.35491764 1.45466533 81.81079102 4.51757812 C84.83224059 8.61115496 85.45585462 12.57150287 85.28344727 17.54882812 C83.59478401 28.1553081 78.11145833 38.72035807 70.81079102 46.51757812 C68.83079102 47.83757812 66.85079102 49.15757812 64.81079102 50.51757812 C73.06079102 50.84757812 81.31079102 51.17757812 89.81079102 51.51757812 C89.81079102 51.84757812 89.81079102 52.17757812 89.81079102 52.51757812 C52.85079102 52.51757812 15.89079102 52.51757812 -22.18920898 52.51757812 C-22.18920898 52.18757813 -22.18920898 51.85757813 -22.18920898 51.51757812 C-9.81420898 51.02257812 -9.81420898 51.02257812 2.81079102 50.51757812 C0.83079102 49.19757813 -1.14920898 47.87757813 -3.18920898 46.51757812 C-11.51479682 38.20905092 -17.21813372 26.30825865 -17.43920898 14.51757812 C-17.37715049 10.33483566 -17.04544649 7.7546473 -14.18920898 4.51757812 C-9.5140061 0.74839175 -5.85271461 -0.06373408 0 0 Z " fill="#CBD5DB" transform="translate(188.189208984375,84.482421875)"/>
<path d="M0 0 C1.18239258 0.01353516 1.18239258 0.01353516 2.38867188 0.02734375 C4.32174666 0.05077496 6.2546638 0.08664162 8.1875 0.125 C7.94400314 1.43616539 7.94400314 1.43616539 7.69558716 2.77381897 C7.23197496 5.83165735 7.06071088 8.65695853 7.05810547 11.74389648 C7.05337723 13.36103798 7.05337723 13.36103798 7.04855347 15.010849 C7.0505777 16.16097977 7.05260193 17.31111053 7.0546875 18.49609375 C7.05373077 19.69178482 7.05277405 20.88747589 7.05178833 22.11940002 C7.05110901 24.64348402 7.05294597 27.16756977 7.05712891 29.69165039 C7.06247589 33.54512478 7.05717787 37.39848237 7.05078125 41.25195312 C7.05144217 43.70833359 7.05272361 46.16471398 7.0546875 48.62109375 C7.05266327 49.76920029 7.05063904 50.91730682 7.04855347 52.10020447 C7.06443706 57.54855536 7.2169969 62.75928401 8.1875 68.125 C-12.01618047 69.10576119 -12.01618047 69.10576119 -18.8125 63.125 C-24.34037185 58.06392622 -27.3845671 52.43752502 -28.13037109 44.92163086 C-28.28795269 41.19296468 -28.32006973 37.48187729 -28.3125 33.75 C-28.34085938 32.48671875 -28.36921875 31.2234375 -28.3984375 29.921875 C-28.41774169 20.63655859 -26.99889903 13.59813868 -20.53125 6.6875 C-19.43296875 5.9140625 -19.43296875 5.9140625 -18.3125 5.125 C-17.5803125 4.58875 -16.848125 4.0525 -16.09375 3.5 C-10.59798801 0.18748593 -6.27788372 -0.13681892 0 0 Z " fill="#CDD6DC" transform="translate(87.8125,144.875)"/>
<path d="M0 0 C20.68677525 0.26398437 20.68677525 0.26398437 29.05078125 7.86328125 C36.93033324 16.26487396 37.5016903 23.68254633 37.4375 34.875 C37.4674707 36.71771484 37.4674707 36.71771484 37.49804688 38.59765625 C37.4925163 48.91771389 35.37496138 56.62503862 28 64 C21.64364098 68.46663066 16.34944761 69.14977281 8.75 69.0625 C8.00492187 69.05798828 7.25984375 69.05347656 6.4921875 69.04882812 C4.6614236 69.03709246 2.83070127 69.0191585 1 69 C1.16153564 67.92419678 1.32307129 66.84839355 1.48950195 65.73999023 C2.17557167 60.21807084 2.16217736 54.71781675 2.16796875 49.16015625 C2.17129715 48.03862656 2.17462555 46.91709686 2.17805481 45.76158142 C2.18309808 43.39908252 2.18546394 41.03657655 2.18530273 38.67407227 C2.18749086 35.07751662 2.20567913 31.48126718 2.22460938 27.88476562 C2.22754358 25.58073021 2.2295282 23.27669334 2.23046875 20.97265625 C2.23765427 19.90676773 2.24483978 18.84087921 2.25224304 17.74269104 C2.2333596 11.51551355 1.58344402 6.02744221 0 0 Z " fill="#CDD6DC" transform="translate(347,144)"/>
<path d="M0 0 C3.43761572 2.12108204 5.77560839 4.1042085 7 8 C7.48459952 13.23367486 6.82735806 16.55700877 4 21 C0.79436581 23.90510598 -1.95011777 24.8586697 -6.25 25.4375 C-11.23409112 24.8560227 -13.67351517 22.62718402 -17 19 C-18.86458199 15.27083603 -18.56048286 11.06038696 -18 7 C-14.06597036 -0.74217033 -7.77822272 -1.930666 0 0 Z " fill="#6EFAE1" transform="translate(266,167)"/>
<path d="M0 0 C3.85544798 1.99657127 5.59805092 3.39707638 8 7 C8.61405598 11.2585181 8.47919235 14.95034057 6.6875 18.875 C3.12845425 23.35676131 1.14281739 24.75000464 -4.75 25.4375 C-9.22242033 25.4044322 -11.45245693 23.55752835 -14.65234375 20.60546875 C-17.47572945 17.24195709 -17.32983555 13.40189406 -17.2890625 9.22265625 C-16.85785084 5.90698818 -15.38894284 4.25243182 -13 2 C-8.74748617 -0.83500922 -4.99342406 -0.64456329 0 0 Z " fill="#6FFBE1" transform="translate(188,167)"/>
</svg>
